HIERARCHY
ROOT Hips
{
	OFFSET 55.310501 45.591206 43.872097
	CHANNELS 6 Xposition Yposition Zposition Zrotation Xrotation Yrotation
	JOINT Chest
	{
		OFFSET -0.153500 1.163101 7.852402
		CHANNELS 6 Xposition Yposition Zposition Zrotation Xrotation Yrotation
		JOINT Chest2
		{
			OFFSET 0.000000 0.000000 3.343300
			CHANNELS 6 Xposition Yposition Zposition Zrotation Xrotation Yrotation
			JOINT Neck
			{
				OFFSET 0.000000 0.000000 7.785500
				CHANNELS 6 Xposition Yposition Zposition Zrotation Xrotation Yrotation
				JOINT Head
				{
					OFFSET 0.000000 0.000000 2.173901
					CHANNELS 6 Xposition Yposition Zposition Zrotation Xrotation Yrotation
					End Site
					{
						OFFSET 0.000000 0.000000 10.528198
					}
				}
			}
			JOINT LeftCollar
			{
				OFFSET 2.676300 -1.652401 4.938301
				CHANNELS 6 Xposition Yposition Zposition Zrotation Xrotation Yrotation
				JOINT LeftShoulder
				{
					OFFSET 4.299000 0.000000 0.000000
					CHANNELS 6 Xposition Yposition Zposition Zrotation Xrotation Yrotation
					JOINT LeftElbow
					{
						OFFSET 0.000000 0.000000 -10.245102
						CHANNELS 6 Xposition Yposition Zposition Zrotation Xrotation Yrotation
						JOINT LeftWrist
						{
							OFFSET 0.000000 0.000000 -12.703300
							CHANNELS 6 Xposition Yposition Zposition Zrotation Xrotation Yrotation
							End Site
							{
								OFFSET 0.000000 0.000000 -2.173901
							}
						}
					}
				}
			}
			JOINT RightCollar
			{
				OFFSET -2.534599 -1.686401 5.195000
				CHANNELS 6 Xposition Yposition Zposition Zrotation Xrotation Yrotation
				JOINT RightShoulder
				{
					OFFSET -4.144100 0.000000 0.000000
					CHANNELS 6 Xposition Yposition Zposition Zrotation Xrotation Yrotation
					JOINT RightElbow
					{
						OFFSET 0.000000 0.000000 -10.116501
						CHANNELS 6 Xposition Yposition Zposition Zrotation Xrotation Yrotation
						JOINT RightWrist
						{
							OFFSET 0.000000 0.000000 -12.937801
							CHANNELS 6 Xposition Yposition Zposition Zrotation Xrotation Yrotation
							End Site
							{
								OFFSET 0.000000 0.000000 -2.173901
							}
						}
					}
				}
			}
		}
	}
	JOINT LeftHip
	{
		OFFSET 2.175598 0.064499 -2.662899
		CHANNELS 6 Xposition Yposition Zposition Zrotation Xrotation Yrotation
		JOINT LeftKnee
		{
			OFFSET 0.000000 -0.000004 -18.585800
			CHANNELS 6 Xposition Yposition Zposition Zrotation Xrotation Yrotation
			JOINT LeftAnkle
			{
				OFFSET 0.000000 0.000000 -18.979500
				CHANNELS 6 Xposition Yposition Zposition Zrotation Xrotation Yrotation
				End Site
				{
					OFFSET 0.000000 -9.264000 0.000000
				}
			}
		}
	}
	JOINT RightHip
	{
		OFFSET -2.092400 -0.058102 -2.581200
		CHANNELS 6 Xposition Yposition Zposition Zrotation Xrotation Yrotation
		JOINT RightKnee
		{
			OFFSET 0.000000 -0.000004 -18.665001
			CHANNELS 6 Xposition Yposition Zposition Zrotation Xrotation Yrotation
			JOINT RightAnkle
			{
				OFFSET 0.000000 0.000000 -18.566601
				CHANNELS 6 Xposition Yposition Zposition Zrotation Xrotation Yrotation
				End Site
				{
					OFFSET 0.000000 -8.497601 0.000000
				}
			}
		}
	}
}
MOTION
Frames: 4
Frame Time: 0.041667
68.700699 -35.675793 18.726795 3067.977159 43.298939 -14.957341 -0.153502 1.163096 7.852405 -10.443516 29.430670 4.314742 0.000004 0.000006 3.343300 7.134370 -8.287329 0.747313 0.000001 0.000003 7.785504 -6.611837 4.825902 -6.484833 -0.000006 0.000006 2.173902 -2.232927 -3.198774 -1.386287 2.676298 -1.652396 4.938305 -6.299729 8.555493 -3.372863 4.299012 0.000004 0.000001 -389.993201 -28.867135 268.106235 0.000002 -0.000001 -10.245092 -30.431443 791.865358 96.596790 0.000000 -0.000002 -12.703296 1194.340429 -176.220889 560.124908 -2.534588 -1.686401 5.195010 2.305319 3.752641 -9.657092 -4.144114 0.000009 -0.000006 155.526768 146.464609 -114.320913 -0.000002 0.000005 -10.116493 -224.093193 -154.137316 -230.791764 -0.000001 0.000006 -12.937800 -1080.332879 -44.467544 -71.596420 2.175594 0.064497 -2.662896 -945.484618 -1.967132 133.045460 -0.000004 0.000004 -18.585814 358.688313 -175.795081 -69.627379 0.000004 -0.000003 -18.979498 761.196934 -7.874920 -693.270922 -2.092398 -0.058094 -2.581203 1293.965022 -7.860413 -133.931690 -0.000003 0.000013 -18.665010 -1199.957796 48.154070 -873.816809 0.000005 -0.000010 -18.566599 711.357754 -17.109250 -23.680420
68.793098 -35.702099 18.651199 3069.841527 43.355811 -15.373159 -0.153481 1.163104 7.852404 -11.477635 29.662327 4.674261 0.000007 0.000011 3.343308 8.168668 -8.313509 0.865522 0.000005 0.000001 7.785501 -7.093134 5.451604 -6.452378 -0.000006 0.000003 2.173908 -2.237517 -3.008198 -1.691116 2.676294 -1.652399 4.938301 -5.504258 10.182052 -3.377404 4.298997 0.000004 -0.000000 -390.883803 -31.261472 267.568289 -0.000002 -0.000003 -10.245097 -35.467858 793.295654 101.387854 0.000003 -0.000001 -12.703300 1194.215519 -176.221462 559.975955 -2.534599 -1.686400 5.195003 2.444147 4.558706 -9.787968 -4.144107 0.000007 -0.000004 155.739938 146.851949 -114.831367 -0.000002 -0.000003 -10.116501 -224.886109 -153.219940 -232.008795 -0.000000 -0.000004 -12.937800 -1083.541975 -44.270093 -72.511037 2.175608 0.064497 -2.662899 -945.740012 -1.767201 133.882076 -0.000006 -0.000009 -18.585802 359.259098 -176.056691 -70.109406 0.000003 -0.000014 -18.979496 759.896302 -7.127265 -693.481729 -2.092375 -0.058098 -2.581197 1293.825577 -7.985605 -133.303586 0.000009 0.000016 -18.665005 -1197.910378 48.129205 -875.453650 0.000009 -0.000003 -18.566599 710.861883 -17.575648 -24.044031
68.869400 -35.728298 18.593004 3071.408646 43.478911 -15.660205 -0.153482 1.163094 7.852403 -12.272309 29.798322 4.942842 0.000011 0.000005 3.343306 9.145344 -8.258878 1.006905 -0.000005 -0.000001 7.785503 -7.623074 5.967042 -6.342563 0.000001 0.000005 2.173905 -2.250635 -2.923924 -1.879810 2.676297 -1.652396 4.938300 -5.382196 9.867164 -2.682474 4.298999 -0.000002 -0.000003 -391.008768 -31.613855 267.576158 -0.000005 -0.000003 -10.245098 -40.135482 794.294173 105.848439 -0.000011 -0.000003 -12.703299 1194.100225 -176.236038 559.829625 -2.534595 -1.686403 5.195004 2.173305 4.531312 -9.630626 -4.144094 -0.000001 0.000004 155.881569 146.884461 -115.138247 0.000002 0.000008 -10.116491 -225.267958 -152.542549 -233.222437 -0.000004 0.000010 -12.937801 -1086.060074 -44.070546 -73.033007 2.175604 0.064491 -2.662900 -945.866125 -1.508412 134.637686 -0.000009 -0.000009 -18.585798 359.848107 -176.159034 -70.552057 0.000010 -0.000008 -18.979496 758.822979 -6.431967 -693.699748 -2.092375 -0.058105 -2.581202 1293.873224 -7.888380 -132.762157 -0.000006 0.000009 -18.665009 -1196.509151 47.796923 -876.417745 -0.000009 -0.000014 -18.566597 710.023791 -18.177461 -24.856122
68.926804 -35.749294 18.539495 3072.614475 43.494115 -15.754526 -0.153496 1.163099 7.852406 -12.852470 30.010379 5.189243 0.000004 0.000004 3.343306 10.110995 -8.301386 1.149351 0.000011 0.000004 7.785505 -8.235045 6.562050 -6.252890 0.000001 0.000001 2.173902 -2.328017 -2.762105 -2.042063 2.676301 -1.652396 4.938308 -5.910854 10.365973 -1.902260 4.298999 0.000000 0.000005 -390.808316 -31.667428 266.813854 0.000002 -0.000008 -10.245105 -44.972821 794.685680 111.338354 -0.000001 0.000011 -12.703303 1193.913679 -176.006134 559.666083 -2.534604 -1.686403 5.195010 2.054789 5.103636 -9.733958 -4.144113 0.000000 0.000002 155.981030 147.485108 -115.357811 0.000004 0.000004 -10.116495 -225.839481 -152.202351 -234.515419 -0.000006 0.000010 -12.937801 -1088.095580 -43.844070 -73.419288 2.175594 0.064501 -2.662899 -945.772688 -1.431355 135.307878 -0.000004 0.000003 -18.585804 360.517219 -176.330937 -70.900649 0.000000 0.000005 -18.979494 757.782441 -5.732974 -693.888535 -2.092394 -0.058092 -2.581201 1294.032559 -7.854462 -132.134039 -0.000003 -0.000002 -18.665007 -1195.084756 47.656084 -877.496915 0.000005 -0.000002 -18.566599 709.277771 -18.748854 -25.525520
